<mxfile host="65bd71144e">
    <diagram id="BBq1eoQgUtZGnKqu-x13" name="Page-1">
        <mxGraphModel dx="727" dy="388" grid="1" gridSize="10" guides="1" tooltips="1" connect="1" arrows="1" fold="1" page="1" pageScale="1" pageWidth="827" pageHeight="1169" math="0" shadow="0">
            <root>
                <mxCell id="0"/>
                <mxCell id="1" parent="0"/>
                <mxCell id="5" value="Game" style="swimlane;" vertex="1" parent="1">
                    <mxGeometry x="110" y="70" width="200" height="140" as="geometry"/>
                </mxCell>
                <mxCell id="7" value="&lt;ul&gt;&lt;li&gt;Deque&amp;lt;Players&amp;gt;&lt;/li&gt;&lt;li&gt;List&amp;lt;Piece&amp;gt;&lt;/li&gt;&lt;li&gt;List&amp;lt;State&amp;gt;&lt;/li&gt;&lt;/ul&gt;" style="text;strokeColor=none;fillColor=none;html=1;whiteSpace=wrap;verticalAlign=middle;overflow=hidden;" vertex="1" parent="5">
                    <mxGeometry x="25" y="22.5" width="150" height="95" as="geometry"/>
                </mxCell>
                <mxCell id="25" style="edgeStyle=none;html=1;exitX=0;exitY=0.5;exitDx=0;exitDy=0;entryX=1;entryY=0.5;entryDx=0;entryDy=0;" edge="1" parent="1" source="8" target="5">
                    <mxGeometry relative="1" as="geometry"/>
                </mxCell>
                <mxCell id="8" value="Piece" style="swimlane;startSize=40;" vertex="1" parent="1">
                    <mxGeometry x="440" y="65" width="200" height="150" as="geometry"/>
                </mxCell>
                <mxCell id="9" value="&lt;ul&gt;&lt;li&gt;name&lt;/li&gt;&lt;li&gt;color&lt;/li&gt;&lt;li&gt;move(pos) -&amp;gt; strategy pattern&lt;/li&gt;&lt;/ul&gt;" style="text;strokeColor=none;fillColor=none;html=1;whiteSpace=wrap;verticalAlign=middle;overflow=hidden;" vertex="1" parent="8">
                    <mxGeometry x="25" y="35" width="150" height="100" as="geometry"/>
                </mxCell>
                <mxCell id="10" value="Move" style="swimlane;" vertex="1" parent="1">
                    <mxGeometry x="440" y="240" width="200" height="170" as="geometry"/>
                </mxCell>
                <mxCell id="11" value="&lt;ul&gt;&lt;li&gt;Piece&lt;/li&gt;&lt;li&gt;start pos&lt;/li&gt;&lt;li&gt;end pos&lt;/li&gt;&lt;li&gt;isValid()&lt;/li&gt;&lt;li&gt;State&lt;/li&gt;&lt;/ul&gt;" style="text;strokeColor=none;fillColor=none;html=1;whiteSpace=wrap;verticalAlign=middle;overflow=hidden;" vertex="1" parent="10">
                    <mxGeometry x="25" y="35" width="150" height="130" as="geometry"/>
                </mxCell>
                <mxCell id="12" value="State" style="swimlane;" vertex="1" parent="1">
                    <mxGeometry x="320" y="440" width="200" height="200" as="geometry"/>
                </mxCell>
                <mxCell id="13" value="&lt;ul&gt;&lt;li&gt;Value 1&lt;/li&gt;&lt;li&gt;Value 2&lt;/li&gt;&lt;li&gt;Value 3&lt;/li&gt;&lt;/ul&gt;" style="text;strokeColor=none;fillColor=none;html=1;whiteSpace=wrap;verticalAlign=middle;overflow=hidden;" vertex="1" parent="12">
                    <mxGeometry x="25" y="35" width="150" height="130" as="geometry"/>
                </mxCell>
                <mxCell id="27" style="edgeStyle=none;html=1;entryX=0.5;entryY=1;entryDx=0;entryDy=0;" edge="1" parent="1" source="14" target="5">
                    <mxGeometry relative="1" as="geometry"/>
                </mxCell>
                <mxCell id="14" value="Player" style="swimlane;" vertex="1" parent="1">
                    <mxGeometry x="110" y="310" width="200" height="100" as="geometry"/>
                </mxCell>
                <mxCell id="15" value="&lt;ul&gt;&lt;li&gt;id&lt;/li&gt;&lt;li&gt;play(Move)&lt;/li&gt;&lt;/ul&gt;" style="text;strokeColor=none;fillColor=none;html=1;whiteSpace=wrap;verticalAlign=middle;overflow=hidden;" vertex="1" parent="14">
                    <mxGeometry x="25" y="20" width="150" height="90" as="geometry"/>
                </mxCell>
                <mxCell id="16" value="Board" style="swimlane;" vertex="1" parent="1">
                    <mxGeometry x="600" y="740" width="200" height="200" as="geometry"/>
                </mxCell>
                <mxCell id="17" value="&lt;ul&gt;&lt;li&gt;Value 1&lt;/li&gt;&lt;li&gt;Value 2&lt;/li&gt;&lt;li&gt;Value 3&lt;/li&gt;&lt;/ul&gt;" style="text;strokeColor=none;fillColor=none;html=1;whiteSpace=wrap;verticalAlign=middle;overflow=hidden;" vertex="1" parent="16">
                    <mxGeometry x="25" y="35" width="150" height="130" as="geometry"/>
                </mxCell>
                <mxCell id="18" value="Board" style="swimlane;" vertex="1" parent="1">
                    <mxGeometry x="320" y="700" width="200" height="200" as="geometry"/>
                </mxCell>
                <mxCell id="19" value="&lt;ul&gt;&lt;li&gt;Value 1&lt;/li&gt;&lt;li&gt;Value 2&lt;/li&gt;&lt;li&gt;Value 3&lt;/li&gt;&lt;/ul&gt;" style="text;strokeColor=none;fillColor=none;html=1;whiteSpace=wrap;verticalAlign=middle;overflow=hidden;" vertex="1" parent="18">
                    <mxGeometry x="25" y="35" width="150" height="130" as="geometry"/>
                </mxCell>
                <mxCell id="20" value="Board" style="swimlane;" vertex="1" parent="1">
                    <mxGeometry x="1040" y="720" width="200" height="200" as="geometry"/>
                </mxCell>
                <mxCell id="21" value="&lt;ul&gt;&lt;li&gt;Value 1&lt;/li&gt;&lt;li&gt;Value 2&lt;/li&gt;&lt;li&gt;Value 3&lt;/li&gt;&lt;/ul&gt;" style="text;strokeColor=none;fillColor=none;html=1;whiteSpace=wrap;verticalAlign=middle;overflow=hidden;" vertex="1" parent="20">
                    <mxGeometry x="25" y="35" width="150" height="130" as="geometry"/>
                </mxCell>
                <mxCell id="22" value="Board" style="swimlane;" vertex="1" parent="1">
                    <mxGeometry x="1090" y="420" width="200" height="200" as="geometry"/>
                </mxCell>
                <mxCell id="23" value="&lt;ul&gt;&lt;li&gt;Value 1&lt;/li&gt;&lt;li&gt;Value 2&lt;/li&gt;&lt;li&gt;Value 3&lt;/li&gt;&lt;/ul&gt;" style="text;strokeColor=none;fillColor=none;html=1;whiteSpace=wrap;verticalAlign=middle;overflow=hidden;" vertex="1" parent="22">
                    <mxGeometry x="25" y="35" width="150" height="130" as="geometry"/>
                </mxCell>
                <mxCell id="26" value="has" style="text;html=1;align=center;verticalAlign=middle;resizable=0;points=[];autosize=1;strokeColor=none;fillColor=none;" vertex="1" parent="1">
                    <mxGeometry x="350" y="120" width="40" height="30" as="geometry"/>
                </mxCell>
                <mxCell id="28" value="has" style="text;html=1;align=center;verticalAlign=middle;resizable=0;points=[];autosize=1;strokeColor=none;fillColor=none;" vertex="1" parent="1">
                    <mxGeometry x="170" y="268" width="40" height="30" as="geometry"/>
                </mxCell>
            </root>
        </mxGraphModel>
    </diagram>
</mxfile>